# File created by Blade
# Date/Time:  Tue Jan 27 19:54:25 2015
# Frame Rate: 120.000 fps
#------------------------------------------------------
:FULLY-SPECIFIED
:DEGREES
3145
root 5.262891 35.281790 -0.373888 42.006665 -24.197137 -52.454938
Spine 4.804762 25.575434 19.527778
Head -30.897558 8.389856 8.880054
LeftShoulder -19.179674 -1.773560 33.003311
LeftArm -17.419398 -55.485820 -58.028158
LeftForeArm -71.951107 -0.000000 139.752648
LeftHand 4.964642 -0.000000 -37.753776
LeftHandThumb1 -26.253704 0.000000 33.147579
RightShoulder -12.171681 -6.101682 -17.081832
RightArm 19.126392 -39.222511 78.442892
RightForeArm -21.254848 0.000000 24.568585
RightHand 17.794513 -0.000000 12.287575
RightHandThumb1 -24.326973 -0.000000 -32.862282
LeftUpLeg -4.436323 18.777345 36.697704
LeftLeg -4.103867 -0.000000 0.000000
LeftFoot -18.245625 19.005756 -16.432820
LeftToeBase 21.105300 -0.000000 -0.000000
RightUpLeg 9.070852 -35.259619 -47.567303
RightLeg 50.578561 -0.000000 -0.000000
RightFoot 35.510096 -17.973349 19.912848
RightToeBase 10.346131 -0.000000 -0.000000
3146
root 5.238048 35.302890 -0.380200 42.017959 -23.805127 -52.613050
Spine 4.852271 25.664163 19.688092
Head -31.140244 8.309365 9.210213
LeftShoulder -19.098204 -1.846444 33.203448
LeftArm -17.374323 -55.569399 -57.974370
LeftForeArm -72.072649 -0.000000 139.770201
LeftHand 4.941967 -0.000000 -37.567037
LeftHandThumb1 -26.253704 0.000000 33.147579
RightShoulder -12.157746 -6.051250 -16.916002
RightArm 19.343928 -39.303420 78.287983
RightForeArm -21.137466 -0.000000 24.435454
RightHand 17.754922 -0.000000 12.159658
RightHandThumb1 -24.326973 -0.000000 -32.862282
LeftUpLeg -4.533548 18.927010 37.074143
LeftLeg -4.132132 -0.000000 0.000000
LeftFoot -18.100747 18.704796 -16.391367
LeftToeBase 20.986577 -0.000000 -0.000000
RightUpLeg 10.053710 -34.514620 -47.347211
RightLeg 46.105349 -0.000000 -0.000000
RightFoot 35.636343 -17.646624 19.738292
RightToeBase 10.217744 -0.000000 -0.000000
3147
root 5.205266 35.325031 -0.384187 42.022127 -23.362909 -52.779527
Spine 4.864710 25.721138 19.876761
Head -31.342116 8.222278 9.558497
LeftShoulder -19.009167 -1.968842 33.418622
LeftArm -17.413300 -55.613744 -57.797172
LeftForeArm -72.083397 -0.000000 139.818966
LeftHand 4.975156 -0.000000 -37.594279
LeftHandThumb1 -26.253704 0.000000 33.147579
RightShoulder -12.151573 -5.959220 -16.745126
RightArm 19.476431 -39.395812 78.178796
RightForeArm -21.059194 -0.000000 24.327373
RightHand 17.700303 -0.000000 11.961659
RightHandThumb1 -24.326973 -0.000000 -32.862282
LeftUpLeg -4.637401 19.002608 37.498239
LeftLeg -4.170426 -0.000000 0.000000
LeftFoot -18.030458 18.553823 -16.399926
LeftToeBase 21.000683 -0.000000 -0.000000
RightUpLeg 11.155672 -33.696688 -47.052983
RightLeg 41.525690 -0.000000 -0.000000
RightFoot 35.593374 -17.333372 19.664512
RightToeBase 10.202788 -0.000000 -0.000000
3148
root 5.174268 35.351178 -0.394965 42.082429 -22.835985 -52.945578
Spine 4.811615 25.737782 20.109885
Head -31.576014 8.142431 9.815940
LeftShoulder -18.924886 -2.076949 33.609129
LeftArm -17.399477 -55.713536 -57.663238
LeftForeArm -72.081493 -0.000000 139.868336
LeftHand 4.962458 0.000000 -37.456493
LeftHandThumb1 -26.253704 0.000000 33.147579
RightShoulder -12.163530 -5.831278 -16.620972
RightArm 19.520076 -39.395453 78.199666
RightForeArm -20.987097 -0.000000 24.208649
RightHand 17.706946 -0.000000 11.772144
RightHandThumb1 -24.326973 -0.000000 -32.862282
LeftUpLeg -4.898442 18.948888 37.977134
LeftLeg -4.097822 -0.000000 0.000000
LeftFoot -18.026013 18.412529 -16.501930
LeftToeBase 21.013505 -0.000000 -0.000000
RightUpLeg 12.288024 -32.908514 -46.594581
RightLeg 36.828955 -0.000000 -0.000000
RightFoot 35.395436 -17.480593 19.714771
RightToeBase 10.478291 -0.000000 -0.000000
3149
root 5.138827 35.375654 -0.405129 42.097645 -22.393319 -53.137270
Spine 4.852515 25.773721 20.337077
Head -31.813211 8.021013 10.065589
LeftShoulder -18.906437 -2.101252 33.757086
LeftArm -17.160561 -55.773899 -57.638332
LeftForeArm -71.970747 -0.000000 139.897262
LeftHand 4.935855 -0.000000 -37.353967
LeftHandThumb1 -26.253704 0.000000 33.147579
RightShoulder -12.206007 -5.836443 -16.435897
RightArm 19.828626 -39.405339 78.030153
RightForeArm -20.968835 -0.000000 24.088342
RightHand 17.587129 -0.000000 11.337814
RightHandThumb1 -24.326973 -0.000000 -32.862282
LeftUpLeg -5.037350 18.999423 38.432601
LeftLeg -4.065335 -0.000000 0.000000
LeftFoot -17.877169 18.316728 -16.314886
LeftToeBase 20.750586 -0.000000 -0.000000
RightUpLeg 13.397000 -31.909467 -46.072130
RightLeg 32.118426 -0.000000 -0.000000
RightFoot 35.167739 -17.839759 19.700493
RightToeBase 10.373313 -0.000000 -0.000000
3150
root 5.106577 35.394328 -0.417016 42.133548 -22.029059 -53.306929
Spine 4.861633 25.866758 20.467723
Head -32.027523 7.928724 10.345615
LeftShoulder -18.851563 -2.209233 33.962018
LeftArm -17.099209 -55.805827 -57.456863
LeftForeArm -71.982551 -0.000000 139.922175
LeftHand 4.906745 -0.000000 -37.151597
LeftHandThumb1 -26.253704 0.000000 33.147579
RightShoulder -12.204559 -5.674019 -16.283835
RightArm 19.781823 -39.246519 78.143108
RightForeArm -20.935391 -0.000000 24.056816
RightHand 17.489139 -0.000000 11.155066
RightHandThumb1 -24.326973 -0.000000 -32.862282
LeftUpLeg -5.152216 19.099034 38.809774
LeftLeg -4.071607 -0.000000 0.000000
LeftFoot -17.800211 18.210315 -16.232859
LeftToeBase 20.627068 -0.000000 -0.000000
RightUpLeg 14.395348 -30.826555 -45.548587
RightLeg 27.518781 -0.000000 -0.000000
RightFoot 34.963365 -18.199266 19.522606
RightToeBase 11.074667 -0.000000 -0.000000
